<mxfile host="Electron" modified="2024-08-10T14:37:11.168Z" agent="Mozilla/5.0 (X11; Linux x86_64) AppleWebKit/537.36 (KHTML, like Gecko) draw.io/24.6.4 Chrome/124.0.6367.207 Electron/30.0.6 Safari/537.36" etag="Sx1wKA1nl28NDLOqRDWF" version="24.6.4" type="device">
  <diagram name="Page-1" id="9wqaY5zrm7yXHq3sRCdF">
    <mxGraphModel dx="1434" dy="871" grid="1" gridSize="10" guides="1" tooltips="1" connect="1" arrows="1" fold="1" page="1" pageScale="1" pageWidth="1654" pageHeight="1169" math="0" shadow="0">
      <root>
        <mxCell id="0" />
        <mxCell id="1" parent="0" />
        <mxCell id="A0rN7XD_R46IYe2wYB2i-1" value="Simulation Structure" style="rounded=0;whiteSpace=wrap;html=1;fontStyle=1;align=left;fontSize=18;spacingLeft=8;spacingTop=2;spacingBottom=2;" vertex="1" parent="1">
          <mxGeometry x="40" y="40" width="1560" height="40" as="geometry" />
        </mxCell>
        <mxCell id="A0rN7XD_R46IYe2wYB2i-2" value="plant model" style="rounded=0;whiteSpace=wrap;html=1;verticalAlign=bottom;" vertex="1" parent="1">
          <mxGeometry x="40" y="780" width="240" height="390" as="geometry" />
        </mxCell>
        <mxCell id="A0rN7XD_R46IYe2wYB2i-4" value="" style="rounded=0;whiteSpace=wrap;html=1;verticalAlign=bottom;dashed=1;" vertex="1" parent="1">
          <mxGeometry x="160" y="820" width="80" height="40" as="geometry" />
        </mxCell>
        <mxCell id="A0rN7XD_R46IYe2wYB2i-66" style="edgeStyle=orthogonalEdgeStyle;rounded=0;orthogonalLoop=1;jettySize=auto;html=1;exitX=1;exitY=0.5;exitDx=0;exitDy=0;entryX=0;entryY=0.25;entryDx=0;entryDy=0;startArrow=open;startFill=0;endArrow=none;endFill=0;" edge="1" parent="1" source="A0rN7XD_R46IYe2wYB2i-5" target="A0rN7XD_R46IYe2wYB2i-50">
          <mxGeometry relative="1" as="geometry" />
        </mxCell>
        <mxCell id="A0rN7XD_R46IYe2wYB2i-5" value="clock model" style="rounded=0;whiteSpace=wrap;html=1;" vertex="1" parent="1">
          <mxGeometry x="380" y="820" width="80" height="40" as="geometry" />
        </mxCell>
        <mxCell id="A0rN7XD_R46IYe2wYB2i-6" value="" style="rounded=0;whiteSpace=wrap;html=1;verticalAlign=bottom;dashed=1;" vertex="1" parent="1">
          <mxGeometry x="160" y="880" width="80" height="40" as="geometry" />
        </mxCell>
        <mxCell id="A0rN7XD_R46IYe2wYB2i-7" value="phenology&lt;div&gt;model&lt;/div&gt;" style="rounded=0;whiteSpace=wrap;html=1;" vertex="1" parent="1">
          <mxGeometry x="380" y="880" width="80" height="40" as="geometry" />
        </mxCell>
        <mxCell id="A0rN7XD_R46IYe2wYB2i-9" value="optional" style="text;html=1;align=center;verticalAlign=middle;whiteSpace=wrap;rounded=0;fontStyle=2" vertex="1" parent="1">
          <mxGeometry x="320" y="900" width="60" height="20" as="geometry" />
        </mxCell>
        <mxCell id="A0rN7XD_R46IYe2wYB2i-10" value="" style="endArrow=none;html=1;rounded=0;strokeWidth=2;strokeColor=#4D4D4D;" edge="1" parent="1">
          <mxGeometry width="50" height="50" relative="1" as="geometry">
            <mxPoint x="160" y="940" as="sourcePoint" />
            <mxPoint x="240" y="940" as="targetPoint" />
          </mxGeometry>
        </mxCell>
        <mxCell id="A0rN7XD_R46IYe2wYB2i-11" value="" style="rounded=0;whiteSpace=wrap;html=1;verticalAlign=bottom;dashed=1;" vertex="1" parent="1">
          <mxGeometry x="160" y="960" width="80" height="40" as="geometry" />
        </mxCell>
        <mxCell id="A0rN7XD_R46IYe2wYB2i-12" value="optional" style="text;html=1;align=center;verticalAlign=middle;whiteSpace=wrap;rounded=0;fontStyle=2" vertex="1" parent="1">
          <mxGeometry x="320" y="980" width="60" height="20" as="geometry" />
        </mxCell>
        <mxCell id="A0rN7XD_R46IYe2wYB2i-14" value="feature model" style="rounded=0;whiteSpace=wrap;html=1;" vertex="1" parent="1">
          <mxGeometry x="380" y="960" width="80" height="40" as="geometry" />
        </mxCell>
        <mxCell id="A0rN7XD_R46IYe2wYB2i-15" value="" style="endArrow=none;dashed=1;html=1;dashPattern=1 3;strokeWidth=2;rounded=0;" edge="1" parent="1">
          <mxGeometry width="50" height="50" relative="1" as="geometry">
            <mxPoint x="199.5" y="1050" as="sourcePoint" />
            <mxPoint x="199.5" y="1010" as="targetPoint" />
          </mxGeometry>
        </mxCell>
        <mxCell id="A0rN7XD_R46IYe2wYB2i-16" value="history" style="rounded=0;whiteSpace=wrap;html=1;" vertex="1" parent="1">
          <mxGeometry x="160" y="1090" width="80" height="40" as="geometry" />
        </mxCell>
        <mxCell id="A0rN7XD_R46IYe2wYB2i-17" value="" style="endArrow=none;html=1;rounded=0;strokeWidth=2;strokeColor=#4D4D4D;" edge="1" parent="1">
          <mxGeometry width="50" height="50" relative="1" as="geometry">
            <mxPoint x="160" y="1070" as="sourcePoint" />
            <mxPoint x="240" y="1070" as="targetPoint" />
          </mxGeometry>
        </mxCell>
        <mxCell id="A0rN7XD_R46IYe2wYB2i-18" value="" style="endArrow=none;html=1;rounded=0;startArrow=classic;startFill=1;endFill=0;" edge="1" parent="1">
          <mxGeometry width="50" height="50" relative="1" as="geometry">
            <mxPoint x="120" y="1095" as="sourcePoint" />
            <mxPoint x="120" y="1115" as="targetPoint" />
            <Array as="points">
              <mxPoint x="120" y="815" />
              <mxPoint x="80" y="815" />
              <mxPoint x="80" y="1135" />
              <mxPoint x="120" y="1135" />
            </Array>
          </mxGeometry>
        </mxCell>
        <mxCell id="A0rN7XD_R46IYe2wYB2i-19" value="simulation loop" style="text;html=1;align=center;verticalAlign=middle;whiteSpace=wrap;rounded=0;rotation=270;" vertex="1" parent="1">
          <mxGeometry x="40" y="965" width="120" height="30" as="geometry" />
        </mxCell>
        <mxCell id="A0rN7XD_R46IYe2wYB2i-68" style="edgeStyle=orthogonalEdgeStyle;rounded=0;orthogonalLoop=1;jettySize=auto;html=1;exitX=0;exitY=0.5;exitDx=0;exitDy=0;entryX=1;entryY=0.5;entryDx=0;entryDy=0;endArrow=open;endFill=0;" edge="1" parent="1" source="A0rN7XD_R46IYe2wYB2i-20" target="A0rN7XD_R46IYe2wYB2i-14">
          <mxGeometry relative="1" as="geometry" />
        </mxCell>
        <mxCell id="A0rN7XD_R46IYe2wYB2i-20" value="hypocotyl length&amp;nbsp;&lt;div&gt;feature model&lt;/div&gt;" style="rounded=0;whiteSpace=wrap;html=1;verticalAlign=bottom;" vertex="1" parent="1">
          <mxGeometry x="720" y="1260" width="240" height="190" as="geometry" />
        </mxCell>
        <mxCell id="A0rN7XD_R46IYe2wYB2i-21" value="hypocotyl&lt;div&gt;length&lt;/div&gt;&lt;div&gt;parameters&lt;/div&gt;" style="rounded=0;whiteSpace=wrap;html=1;" vertex="1" parent="1">
          <mxGeometry x="1000" y="1290" width="80" height="60" as="geometry" />
        </mxCell>
        <mxCell id="A0rN7XD_R46IYe2wYB2i-22" style="edgeStyle=orthogonalEdgeStyle;rounded=0;orthogonalLoop=1;jettySize=auto;html=1;exitX=1;exitY=0.5;exitDx=0;exitDy=0;entryX=0;entryY=0.5;entryDx=0;entryDy=0;endArrow=oval;endFill=0;" edge="1" parent="1" source="A0rN7XD_R46IYe2wYB2i-23" target="A0rN7XD_R46IYe2wYB2i-21">
          <mxGeometry relative="1" as="geometry" />
        </mxCell>
        <mxCell id="A0rN7XD_R46IYe2wYB2i-23" value="" style="rounded=0;whiteSpace=wrap;html=1;verticalAlign=bottom;dashed=1;" vertex="1" parent="1">
          <mxGeometry x="800" y="1300" width="80" height="40" as="geometry" />
        </mxCell>
        <mxCell id="A0rN7XD_R46IYe2wYB2i-24" value="key&amp;nbsp;&lt;div&gt;&lt;i&gt;&quot;model.phenology&quot;&lt;/i&gt;&lt;/div&gt;" style="rounded=0;whiteSpace=wrap;html=1;verticalAlign=middle;" vertex="1" parent="1">
          <mxGeometry x="785" y="1360" width="110" height="40" as="geometry" />
        </mxCell>
        <mxCell id="A0rN7XD_R46IYe2wYB2i-67" style="edgeStyle=orthogonalEdgeStyle;rounded=0;orthogonalLoop=1;jettySize=auto;html=1;exitX=0;exitY=0.5;exitDx=0;exitDy=0;entryX=1;entryY=0.5;entryDx=0;entryDy=0;endArrow=open;endFill=0;" edge="1" parent="1" source="A0rN7XD_R46IYe2wYB2i-25" target="A0rN7XD_R46IYe2wYB2i-7">
          <mxGeometry relative="1" as="geometry" />
        </mxCell>
        <mxCell id="A0rN7XD_R46IYe2wYB2i-25" value="phenology&amp;nbsp;&lt;span style=&quot;background-color: initial;&quot;&gt;model&lt;/span&gt;" style="rounded=0;whiteSpace=wrap;html=1;verticalAlign=bottom;" vertex="1" parent="1">
          <mxGeometry x="720" y="655" width="240" height="490" as="geometry" />
        </mxCell>
        <mxCell id="A0rN7XD_R46IYe2wYB2i-26" value="plant&lt;div&gt;parameters&lt;/div&gt;" style="rounded=0;whiteSpace=wrap;html=1;" vertex="1" parent="1">
          <mxGeometry x="1040" y="885" width="80" height="40" as="geometry" />
        </mxCell>
        <mxCell id="A0rN7XD_R46IYe2wYB2i-27" value="phenology&lt;div&gt;parameters&lt;/div&gt;" style="rounded=0;whiteSpace=wrap;html=1;" vertex="1" parent="1">
          <mxGeometry x="1220" y="710" width="80" height="40" as="geometry" />
        </mxCell>
        <mxCell id="A0rN7XD_R46IYe2wYB2i-28" value="clock&amp;nbsp;&lt;span style=&quot;background-color: initial;&quot;&gt;adapter&lt;/span&gt;" style="rounded=0;whiteSpace=wrap;html=1;verticalAlign=bottom;" vertex="1" parent="1">
          <mxGeometry x="1200" y="765" width="120" height="80" as="geometry" />
        </mxCell>
        <mxCell id="A0rN7XD_R46IYe2wYB2i-30" value="" style="rounded=0;whiteSpace=wrap;html=1;dashed=1;" vertex="1" parent="1">
          <mxGeometry x="1220" y="785" width="80" height="40" as="geometry" />
        </mxCell>
        <mxCell id="A0rN7XD_R46IYe2wYB2i-31" value="phenology behaviour" style="rounded=0;whiteSpace=wrap;html=1;verticalAlign=bottom;" vertex="1" parent="1">
          <mxGeometry x="1000" y="695" width="160" height="170" as="geometry" />
        </mxCell>
        <mxCell id="A0rN7XD_R46IYe2wYB2i-32" style="edgeStyle=orthogonalEdgeStyle;rounded=0;orthogonalLoop=1;jettySize=auto;html=1;exitX=1;exitY=0.5;exitDx=0;exitDy=0;endArrow=oval;endFill=0;entryX=0;entryY=0.5;entryDx=0;entryDy=0;" edge="1" parent="1" source="A0rN7XD_R46IYe2wYB2i-33" target="A0rN7XD_R46IYe2wYB2i-28">
          <mxGeometry relative="1" as="geometry">
            <mxPoint x="1180" y="850" as="targetPoint" />
          </mxGeometry>
        </mxCell>
        <mxCell id="A0rN7XD_R46IYe2wYB2i-33" value="" style="rounded=0;whiteSpace=wrap;html=1;dashed=1;" vertex="1" parent="1">
          <mxGeometry x="1020" y="765" width="120" height="80" as="geometry" />
        </mxCell>
        <mxCell id="A0rN7XD_R46IYe2wYB2i-34" style="edgeStyle=orthogonalEdgeStyle;rounded=0;orthogonalLoop=1;jettySize=auto;html=1;exitX=1;exitY=0.5;exitDx=0;exitDy=0;entryX=0;entryY=0.5;entryDx=0;entryDy=0;endArrow=oval;endFill=0;" edge="1" parent="1" source="A0rN7XD_R46IYe2wYB2i-35" target="A0rN7XD_R46IYe2wYB2i-27">
          <mxGeometry relative="1" as="geometry" />
        </mxCell>
        <mxCell id="A0rN7XD_R46IYe2wYB2i-35" value="" style="rounded=0;whiteSpace=wrap;html=1;dashed=1;" vertex="1" parent="1">
          <mxGeometry x="1040" y="710" width="80" height="40" as="geometry" />
        </mxCell>
        <mxCell id="A0rN7XD_R46IYe2wYB2i-36" value="" style="rounded=0;whiteSpace=wrap;html=1;verticalAlign=bottom;dashed=1;" vertex="1" parent="1">
          <mxGeometry x="800" y="1005" width="80" height="40" as="geometry" />
        </mxCell>
        <mxCell id="A0rN7XD_R46IYe2wYB2i-38" value="ODE&lt;div&gt;algorithm&lt;/div&gt;" style="rounded=0;whiteSpace=wrap;html=1;" vertex="1" parent="1">
          <mxGeometry x="1040" y="1005" width="80" height="40" as="geometry" />
        </mxCell>
        <mxCell id="A0rN7XD_R46IYe2wYB2i-39" value="alg" style="text;html=1;align=center;verticalAlign=middle;whiteSpace=wrap;rounded=0;" vertex="1" parent="1">
          <mxGeometry x="980" y="1005" width="60" height="20" as="geometry" />
        </mxCell>
        <mxCell id="A0rN7XD_R46IYe2wYB2i-40" value="optional" style="text;html=1;align=center;verticalAlign=middle;whiteSpace=wrap;rounded=0;fontStyle=2" vertex="1" parent="1">
          <mxGeometry x="980" y="1025" width="60" height="20" as="geometry" />
        </mxCell>
        <mxCell id="A0rN7XD_R46IYe2wYB2i-41" style="edgeStyle=orthogonalEdgeStyle;rounded=0;orthogonalLoop=1;jettySize=auto;html=1;exitX=1;exitY=0.5;exitDx=0;exitDy=0;entryX=0;entryY=0.5;entryDx=0;entryDy=0;endArrow=oval;endFill=0;" edge="1" parent="1" source="A0rN7XD_R46IYe2wYB2i-45" target="A0rN7XD_R46IYe2wYB2i-26">
          <mxGeometry relative="1" as="geometry" />
        </mxCell>
        <mxCell id="A0rN7XD_R46IYe2wYB2i-42" value="" style="rounded=0;whiteSpace=wrap;html=1;verticalAlign=bottom;dashed=1;" vertex="1" parent="1">
          <mxGeometry x="800" y="945" width="80" height="40" as="geometry" />
        </mxCell>
        <mxCell id="A0rN7XD_R46IYe2wYB2i-45" value="" style="rounded=0;whiteSpace=wrap;html=1;verticalAlign=bottom;dashed=1;" vertex="1" parent="1">
          <mxGeometry x="800" y="885" width="80" height="40" as="geometry" />
        </mxCell>
        <mxCell id="A0rN7XD_R46IYe2wYB2i-46" style="edgeStyle=orthogonalEdgeStyle;rounded=0;orthogonalLoop=1;jettySize=auto;html=1;exitX=1;exitY=0.5;exitDx=0;exitDy=0;entryX=0;entryY=0.5;entryDx=0;entryDy=0;endArrow=oval;endFill=0;" edge="1" parent="1" source="A0rN7XD_R46IYe2wYB2i-47" target="A0rN7XD_R46IYe2wYB2i-31">
          <mxGeometry relative="1" as="geometry" />
        </mxCell>
        <mxCell id="A0rN7XD_R46IYe2wYB2i-47" value="" style="rounded=0;whiteSpace=wrap;html=1;verticalAlign=bottom;dashed=1;" vertex="1" parent="1">
          <mxGeometry x="760" y="695" width="160" height="170" as="geometry" />
        </mxCell>
        <mxCell id="A0rN7XD_R46IYe2wYB2i-49" value="key&amp;nbsp;&lt;div&gt;&lt;i&gt;&quot;model.phenology&quot;&lt;/i&gt;&lt;/div&gt;" style="rounded=0;whiteSpace=wrap;html=1;verticalAlign=middle;" vertex="1" parent="1">
          <mxGeometry x="785" y="1065" width="110" height="40" as="geometry" />
        </mxCell>
        <mxCell id="A0rN7XD_R46IYe2wYB2i-50" value="clock&amp;nbsp;&lt;span style=&quot;background-color: initial;&quot;&gt;model&lt;/span&gt;" style="rounded=0;whiteSpace=wrap;html=1;verticalAlign=bottom;" vertex="1" parent="1">
          <mxGeometry x="720" y="160" width="240" height="380" as="geometry" />
        </mxCell>
        <mxCell id="A0rN7XD_R46IYe2wYB2i-51" value="clock&amp;nbsp;&lt;span style=&quot;background-color: initial;&quot;&gt;behaviour&lt;/span&gt;" style="rounded=0;whiteSpace=wrap;html=1;verticalAlign=bottom;" vertex="1" parent="1">
          <mxGeometry x="1000" y="220" width="120" height="80" as="geometry" />
        </mxCell>
        <mxCell id="A0rN7XD_R46IYe2wYB2i-53" value="clock&lt;div&gt;parameters&lt;/div&gt;" style="rounded=0;whiteSpace=wrap;html=1;" vertex="1" parent="1">
          <mxGeometry x="1360" y="240" width="80" height="40" as="geometry" />
        </mxCell>
        <mxCell id="A0rN7XD_R46IYe2wYB2i-54" value="" style="rounded=0;whiteSpace=wrap;html=1;dashed=1;" vertex="1" parent="1">
          <mxGeometry x="1020" y="240" width="80" height="40" as="geometry" />
        </mxCell>
        <mxCell id="A0rN7XD_R46IYe2wYB2i-55" style="edgeStyle=orthogonalEdgeStyle;rounded=0;orthogonalLoop=1;jettySize=auto;html=1;exitX=1;exitY=0.5;exitDx=0;exitDy=0;entryX=0;entryY=0.5;entryDx=0;entryDy=0;endArrow=oval;endFill=0;" edge="1" parent="1" source="A0rN7XD_R46IYe2wYB2i-56" target="A0rN7XD_R46IYe2wYB2i-51">
          <mxGeometry relative="1" as="geometry" />
        </mxCell>
        <mxCell id="A0rN7XD_R46IYe2wYB2i-56" value="" style="rounded=0;whiteSpace=wrap;html=1;verticalAlign=bottom;dashed=1;" vertex="1" parent="1">
          <mxGeometry x="760" y="200" width="160" height="120" as="geometry" />
        </mxCell>
        <mxCell id="A0rN7XD_R46IYe2wYB2i-57" value="" style="rounded=0;whiteSpace=wrap;html=1;verticalAlign=bottom;dashed=1;" vertex="1" parent="1">
          <mxGeometry x="800" y="400" width="80" height="40" as="geometry" />
        </mxCell>
        <mxCell id="A0rN7XD_R46IYe2wYB2i-59" value="ODE&lt;div&gt;algorithm&lt;/div&gt;" style="rounded=0;whiteSpace=wrap;html=1;" vertex="1" parent="1">
          <mxGeometry x="1020" y="400" width="80" height="40" as="geometry" />
        </mxCell>
        <mxCell id="A0rN7XD_R46IYe2wYB2i-60" value="alg" style="text;html=1;align=center;verticalAlign=middle;whiteSpace=wrap;rounded=0;" vertex="1" parent="1">
          <mxGeometry x="960" y="400" width="60" height="20" as="geometry" />
        </mxCell>
        <mxCell id="A0rN7XD_R46IYe2wYB2i-61" value="optional" style="text;html=1;align=center;verticalAlign=middle;whiteSpace=wrap;rounded=0;fontStyle=2" vertex="1" parent="1">
          <mxGeometry x="960" y="420" width="60" height="20" as="geometry" />
        </mxCell>
        <mxCell id="A0rN7XD_R46IYe2wYB2i-62" value="key&amp;nbsp;&lt;div&gt;&lt;i&gt;&quot;model.clock&quot;&lt;/i&gt;&lt;/div&gt;" style="rounded=0;whiteSpace=wrap;html=1;verticalAlign=middle;" vertex="1" parent="1">
          <mxGeometry x="800" y="460" width="80" height="40" as="geometry" />
        </mxCell>
        <mxCell id="A0rN7XD_R46IYe2wYB2i-63" value="" style="rounded=0;whiteSpace=wrap;html=1;verticalAlign=bottom;dashed=1;" vertex="1" parent="1">
          <mxGeometry x="800" y="340" width="80" height="40" as="geometry" />
        </mxCell>
        <mxCell id="A0rN7XD_R46IYe2wYB2i-65" value="environment&lt;div&gt;model&lt;/div&gt;" style="rounded=0;whiteSpace=wrap;html=1;" vertex="1" parent="1">
          <mxGeometry x="1480" y="340" width="80" height="40" as="geometry" />
        </mxCell>
        <mxCell id="A0rN7XD_R46IYe2wYB2i-58" style="edgeStyle=orthogonalEdgeStyle;rounded=0;orthogonalLoop=1;jettySize=auto;html=1;exitX=1;exitY=0.5;exitDx=0;exitDy=0;entryX=0;entryY=0.5;entryDx=0;entryDy=0;endArrow=oval;endFill=0;dashed=1;dashPattern=1 4;" edge="1" parent="1" source="A0rN7XD_R46IYe2wYB2i-57" target="A0rN7XD_R46IYe2wYB2i-59">
          <mxGeometry relative="1" as="geometry" />
        </mxCell>
        <mxCell id="A0rN7XD_R46IYe2wYB2i-64" style="edgeStyle=orthogonalEdgeStyle;rounded=0;orthogonalLoop=1;jettySize=auto;html=1;exitX=1;exitY=0.5;exitDx=0;exitDy=0;entryX=0;entryY=0.5;entryDx=0;entryDy=0;endArrow=oval;endFill=0;" edge="1" parent="1" source="A0rN7XD_R46IYe2wYB2i-63" target="A0rN7XD_R46IYe2wYB2i-65">
          <mxGeometry relative="1" as="geometry" />
        </mxCell>
        <mxCell id="A0rN7XD_R46IYe2wYB2i-52" style="edgeStyle=orthogonalEdgeStyle;rounded=0;orthogonalLoop=1;jettySize=auto;html=1;exitX=0;exitY=0.5;exitDx=0;exitDy=0;startArrow=oval;startFill=0;endArrow=none;endFill=0;" edge="1" parent="1" source="A0rN7XD_R46IYe2wYB2i-53" target="A0rN7XD_R46IYe2wYB2i-54">
          <mxGeometry relative="1" as="geometry" />
        </mxCell>
        <mxCell id="A0rN7XD_R46IYe2wYB2i-29" style="edgeStyle=orthogonalEdgeStyle;rounded=0;orthogonalLoop=1;jettySize=auto;html=1;exitX=1;exitY=0.5;exitDx=0;exitDy=0;endArrow=oval;endFill=0;entryX=0.5;entryY=1;entryDx=0;entryDy=0;" edge="1" parent="1" source="A0rN7XD_R46IYe2wYB2i-30" target="A0rN7XD_R46IYe2wYB2i-53">
          <mxGeometry relative="1" as="geometry">
            <mxPoint x="1360" y="805" as="targetPoint" />
          </mxGeometry>
        </mxCell>
        <mxCell id="A0rN7XD_R46IYe2wYB2i-37" style="edgeStyle=orthogonalEdgeStyle;rounded=0;orthogonalLoop=1;jettySize=auto;html=1;exitX=1;exitY=0.5;exitDx=0;exitDy=0;entryX=0;entryY=0.5;entryDx=0;entryDy=0;endArrow=oval;endFill=0;dashed=1;dashPattern=1 4;" edge="1" parent="1" source="A0rN7XD_R46IYe2wYB2i-36" target="A0rN7XD_R46IYe2wYB2i-38">
          <mxGeometry relative="1" as="geometry" />
        </mxCell>
        <mxCell id="A0rN7XD_R46IYe2wYB2i-43" style="edgeStyle=orthogonalEdgeStyle;rounded=0;orthogonalLoop=1;jettySize=auto;html=1;exitX=1;exitY=0.5;exitDx=0;exitDy=0;entryX=0.5;entryY=1;entryDx=0;entryDy=0;endArrow=oval;endFill=0;" edge="1" parent="1" source="A0rN7XD_R46IYe2wYB2i-42" target="A0rN7XD_R46IYe2wYB2i-65">
          <mxGeometry relative="1" as="geometry">
            <mxPoint x="1040" y="965" as="targetPoint" />
          </mxGeometry>
        </mxCell>
        <mxCell id="A0rN7XD_R46IYe2wYB2i-70" value="mandatory" style="text;html=1;align=center;verticalAlign=middle;whiteSpace=wrap;rounded=0;fontStyle=0" vertex="1" parent="1">
          <mxGeometry x="320" y="840" width="60" height="20" as="geometry" />
        </mxCell>
        <mxCell id="A0rN7XD_R46IYe2wYB2i-3" style="edgeStyle=orthogonalEdgeStyle;rounded=0;orthogonalLoop=1;jettySize=auto;html=1;exitX=1;exitY=0.5;exitDx=0;exitDy=0;entryX=0;entryY=0.5;entryDx=0;entryDy=0;endArrow=oval;endFill=0;" edge="1" parent="1" source="A0rN7XD_R46IYe2wYB2i-4" target="A0rN7XD_R46IYe2wYB2i-5">
          <mxGeometry relative="1" as="geometry" />
        </mxCell>
        <mxCell id="A0rN7XD_R46IYe2wYB2i-8" style="edgeStyle=orthogonalEdgeStyle;rounded=0;orthogonalLoop=1;jettySize=auto;html=1;exitX=1;exitY=0.5;exitDx=0;exitDy=0;entryX=0;entryY=0.5;entryDx=0;entryDy=0;endArrow=oval;endFill=0;dashed=1;dashPattern=1 4;" edge="1" parent="1" source="A0rN7XD_R46IYe2wYB2i-6" target="A0rN7XD_R46IYe2wYB2i-7">
          <mxGeometry relative="1" as="geometry" />
        </mxCell>
        <mxCell id="A0rN7XD_R46IYe2wYB2i-13" style="edgeStyle=orthogonalEdgeStyle;rounded=0;orthogonalLoop=1;jettySize=auto;html=1;exitX=1;exitY=0.5;exitDx=0;exitDy=0;entryX=0;entryY=0.5;entryDx=0;entryDy=0;endArrow=oval;endFill=0;dashed=1;dashPattern=1 4;" edge="1" parent="1" source="A0rN7XD_R46IYe2wYB2i-11" target="A0rN7XD_R46IYe2wYB2i-14">
          <mxGeometry relative="1" as="geometry" />
        </mxCell>
      </root>
    </mxGraphModel>
  </diagram>
</mxfile>
